<svg viewBox="0 0 24 24" fill="none" xmlns="http://www.w3.org/2000/svg">
  <circle cx="12" cy="11.245" r="1.785" fill="currentColor"/>
  <path d="M12 5.423c4.055 0 7.777 2.08 10.08 5.243-2.303 3.163-6.025 5.244-10.08 5.244-4.055 0-7.777-2.081-10.08-5.244C4.223 7.503 7.945 5.423 12 5.423m0-1.5c-4.92 0-9.258 2.562-11.783 6.386 2.525 3.824 6.863 6.386 11.783 6.386 4.92 0 9.258-2.562 11.783-6.386C21.258 6.485 16.92 3.923 12 3.923z" fill="currentColor"/>
  <ellipse cx="12" cy="11.245" rx="10.08" ry="5.244" fill="none" stroke="currentColor" stroke-width="1.5" transform="rotate(60 12 11.245)"/>
  <ellipse cx="12" cy="11.245" rx="10.08" ry="5.244" fill="none" stroke="currentColor" stroke-width="1.5" transform="rotate(120 12 11.245)"/>
</svg>
